<?xml version="1.0" encoding="UTF-8"?>
<!DOCTYPE svg PUBLIC "-//W3C//DTD SVG 1.1//EN" "http://www.w3.org/Graphics/SVG/1.1/DTD/svg11.dtd">
<svg xmlns="http://www.w3.org/2000/svg" version="1.1" width="50px" height="50px" style="shape-rendering:geometricPrecision; text-rendering:geometricPrecision; image-rendering:optimizeQuality; fill-rule:evenodd; clip-rule:evenodd" xmlns:xlink="http://www.w3.org/1999/xlink">
<g><path style="opacity:0.664" fill="#000000" d="M 21.5,1.5 C 27.6739,0.172887 29.8406,2.50622 28,8.5C 21.5196,8.81928 15.6863,10.9859 10.5,15C 12.9962,16.0804 15.3295,17.4138 17.5,19C 27.2264,22.4557 34.5597,19.7891 39.5,11C 46.1667,9.33333 48.1667,11.6667 45.5,18C 42.8333,18.3333 40.1667,18.6667 37.5,19C 34.9952,20.7533 32.3286,22.2533 29.5,23.5C 28.9347,25.5096 27.9347,27.1763 26.5,28.5C 25.5108,32.1073 25.1774,35.774 25.5,39.5C 29.7814,38.8639 33.7814,37.3639 37.5,35C 38.8553,30.5629 41.6886,29.3962 46,31.5C 46.7581,33.7695 46.5914,35.9361 45.5,38C 39.6332,37.932 34.2999,39.5986 29.5,43C 28.4299,47.2057 25.7633,48.539 21.5,47C 20.8333,45.6667 20.1667,44.3333 19.5,43C 14.7001,39.5986 9.36676,37.932 3.5,38C 0.833333,31.6667 2.83333,29.3333 9.5,31C 10.1667,32.3333 10.8333,33.6667 11.5,35C 15.2186,37.3639 19.2186,38.8639 23.5,39.5C 23.8226,35.774 23.4892,32.1073 22.5,28.5C 21.0653,27.1763 20.0653,25.5096 19.5,23.5C 16.6714,22.2533 14.0048,20.7533 11.5,19C 8.83333,18.6667 6.16667,18.3333 3.5,18C 2.16667,15.6667 2.16667,13.3333 3.5,11C 9.36676,11.068 14.7001,9.40136 19.5,6C 20.2666,4.52951 20.9332,3.02951 21.5,1.5 Z M 23.5,4.5 C 25.337,4.63945 25.6704,5.30612 24.5,6.5C 23.7025,6.04311 23.3691,5.37644 23.5,4.5 Z M 5.5,13.5 C 7.33702,13.6395 7.67036,14.3061 6.5,15.5C 5.70245,15.0431 5.36912,14.3764 5.5,13.5 Z M 41.5,13.5 C 43.337,13.6395 43.6704,14.3061 42.5,15.5C 41.7025,15.0431 41.3691,14.3764 41.5,13.5 Z M 23.5,23.5 C 25.337,23.6395 25.6704,24.3061 24.5,25.5C 23.7025,25.0431 23.3691,24.3764 23.5,23.5 Z M 5.5,33.5 C 7.33702,33.6395 7.67036,34.3061 6.5,35.5C 5.70245,35.0431 5.36912,34.3764 5.5,33.5 Z M 41.5,33.5 C 43.337,33.6395 43.6704,34.3061 42.5,35.5C 41.7025,35.0431 41.3691,34.3764 41.5,33.5 Z M 23.5,42.5 C 25.337,42.6395 25.6704,43.3061 24.5,44.5C 23.7025,44.0431 23.3691,43.3764 23.5,42.5 Z"/></g>
</svg>
